<?xml version="1.0" encoding="utf-8"?>
<!-- Generator: Adobe Illustrator 26.0.1, SVG Export Plug-In . SVG Version: 6.00 Build 0)  -->
<svg version="1.1" id="Laag_1" xmlns="http://www.w3.org/2000/svg" xmlns:xlink="http://www.w3.org/1999/xlink" x="0px" y="0px"
	 viewBox="0 0 125.3 144" style="enable-background:new 0 0 125.3 144;" xml:space="preserve">
<style type="text/css">
	.st0{fill:#4FB68D;}
	.st1{fill:#40B17E;}
	.st2{fill:#FFFFFF;}
	.st3{fill:none;stroke:#FFFFFF;stroke-width:0.6;stroke-miterlimit:10;}
	.st4{fill:none;stroke:#FFFFFF;stroke-width:0.19;stroke-miterlimit:10;}
	.st5{fill:#008954;}
</style>
<polygon class="st0" points="62.6,-0.5 0.2,35.5 0.2,107.4 62.6,143.3 125,107.4 125,35.5 "/>
<path class="st1" d="M125,107.5V35.6l-15.5-8.9c-6,16.2-24.8,28.1-47.2,28.1c-22.2,0-41-11.7-47.1-27.8l-15,8.6v71.9l62.4,35.9
	L125,107.5z"/>
<g>
	<path class="st2" d="M97,101.4h4.1v-6.2c0-0.8,0.2-1.4,0.6-1.8c0.4-0.4,0.9-0.6,1.6-0.6c0.3,0,0.5,0,0.7,0.1
		c0.2,0.1,0.4,0.2,0.6,0.4c0.2,0.2,0.4,0.5,0.4,0.9c0.1,0.4,0.1,0.8,0.1,1.4v5.9h4.1v-7.4c0-0.6-0.1-1.2-0.2-1.7
		c-0.1-0.5-0.3-0.9-0.7-1.3c-0.4-0.5-0.9-0.9-1.5-1.1c-0.6-0.3-1.3-0.4-2.1-0.4c-0.8,0-1.5,0.1-2,0.4c-0.6,0.2-1.1,0.7-1.7,1.4v-1.5
		H97V101.4z M81.1,98c0.3,0.8,0.8,1.5,1.4,2c0.6,0.6,1.3,1,2.2,1.3c0.9,0.3,1.8,0.5,2.8,0.5c1,0,2-0.2,2.8-0.5
		c0.9-0.3,1.6-0.7,2.2-1.3c0.6-0.6,1.1-1.2,1.5-2c0.4-0.8,0.5-1.6,0.5-2.5c0-0.9-0.2-1.8-0.5-2.5c-0.3-0.8-0.8-1.4-1.5-2
		c-0.6-0.6-1.4-1-2.2-1.3c-0.9-0.3-1.8-0.5-2.8-0.5c-1,0-2,0.2-2.8,0.5c-0.9,0.3-1.6,0.8-2.2,1.3c-0.6,0.6-1.1,1.2-1.5,2
		c-0.3,0.8-0.5,1.6-0.5,2.4C80.6,96.4,80.8,97.2,81.1,98 M85.2,94.4c0.1-0.3,0.3-0.6,0.6-0.8c0.2-0.2,0.5-0.4,0.8-0.6
		c0.3-0.1,0.7-0.2,1-0.2c0.4,0,0.7,0.1,1,0.2s0.6,0.3,0.8,0.6c0.2,0.2,0.4,0.5,0.6,0.9c0.1,0.3,0.2,0.7,0.2,1c0,0.4-0.1,0.7-0.2,1.1
		c-0.1,0.3-0.3,0.6-0.6,0.9c-0.2,0.2-0.5,0.4-0.8,0.6s-0.7,0.2-1,0.2c-0.4,0-0.7-0.1-1-0.2c-0.3-0.1-0.6-0.3-0.8-0.6
		s-0.4-0.5-0.6-0.9c-0.1-0.3-0.2-0.7-0.2-1.1C84.9,95.1,85,94.8,85.2,94.4 M79.3,93.1v-3.4h-2.3v-3.5h-4.1v3.5h-1.4v3.4h1.4v8.2h4.1
		v-8.2H79.3z M70.2,93.1v-3.4h-2.9v-1.5c0-0.5,0-1,0.1-1.3c0.1-0.3,0.2-0.6,0.3-0.7c0.2-0.2,0.3-0.3,0.5-0.3
		c0.2-0.1,0.3-0.1,0.5-0.1c0.3,0,0.5,0,0.7,0.1c0.2,0.1,0.5,0.2,0.8,0.3v-3.6c-0.3-0.1-0.6-0.2-0.9-0.3c-0.3-0.1-0.6-0.1-1-0.1
		c-0.5,0-1,0.1-1.5,0.2c-0.5,0.2-1,0.4-1.4,0.7c-0.4,0.3-0.8,0.7-1.2,1.1c-0.3,0.4-0.6,0.9-0.7,1.4c-0.2,0.6-0.3,1.4-0.3,2.3v1.8
		h-1.5v3.4h1.5v8.2h4.1v-8.2H70.2z M55.9,90.8c-1-1-2.2-1.5-3.6-1.5c-0.9,0-1.7,0.2-2.4,0.5c-0.7,0.3-1.3,0.8-1.8,1.3
		c-0.5,0.6-0.9,1.2-1.2,2s-0.4,1.5-0.4,2.4c0,0.9,0.1,1.7,0.4,2.5c0.3,0.8,0.7,1.4,1.2,2c0.5,0.6,1.2,1,1.9,1.3
		c0.7,0.3,1.5,0.5,2.3,0.5c1.5,0,2.7-0.6,3.6-1.7v1.3H60V89.7h-4.1V90.8z M50.9,94.5c0.1-0.3,0.3-0.6,0.6-0.8
		c0.2-0.2,0.5-0.4,0.8-0.6c0.3-0.1,0.7-0.2,1.1-0.2c0.4,0,0.7,0.1,1,0.2c0.3,0.1,0.6,0.3,0.8,0.6c0.2,0.2,0.4,0.5,0.6,0.9
		c0.1,0.3,0.2,0.7,0.2,1c0,0.4-0.1,0.7-0.2,1c-0.1,0.3-0.3,0.6-0.6,0.8s-0.5,0.4-0.8,0.6c-0.3,0.1-0.7,0.2-1,0.2
		c-0.4,0-0.7-0.1-1.1-0.2c-0.3-0.1-0.6-0.3-0.8-0.6c-0.2-0.2-0.4-0.5-0.6-0.9c-0.1-0.3-0.2-0.7-0.2-1.1
		C50.7,95.1,50.7,94.8,50.9,94.5 M36.1,101.4h4.1v-5c0-1.1,0.2-1.9,0.7-2.5c0.5-0.6,1.2-0.9,2.2-0.9c0.6,0,1.2,0.1,1.8,0.4v-3.9
		c-0.2,0-0.3,0-0.4,0h-0.4c-0.9,0-1.6,0.2-2.2,0.6c-0.6,0.4-1.2,0.9-1.6,1.6v-1.9h-4.1V101.4z M28.8,89.7v1.2
		c-0.9-1-2.1-1.5-3.5-1.5c-0.9,0-1.6,0.2-2.4,0.5c-0.7,0.3-1.3,0.8-1.9,1.3c-0.5,0.6-0.9,1.2-1.2,2c-0.3,0.8-0.5,1.6-0.5,2.5
		c0,0.9,0.1,1.7,0.4,2.4c0.3,0.7,0.7,1.3,1.2,1.9c0.5,0.5,1.1,0.9,1.8,1.2c0.7,0.3,1.5,0.4,2.3,0.4c0.4,0,0.7,0,1-0.1
		c0.3-0.1,0.6-0.1,0.9-0.3c0.3-0.1,0.6-0.3,0.9-0.5c0.3-0.2,0.6-0.4,0.9-0.7v1.1c0,0.9-0.2,1.5-0.7,2c-0.5,0.5-1.1,0.7-2,0.7
		c-1,0-1.7-0.4-2-1.2h-4.6c0.1,0.6,0.4,1.2,0.7,1.8c0.4,0.5,0.8,1,1.4,1.4c0.6,0.4,1.2,0.7,2,0.9c0.8,0.2,1.6,0.3,2.5,0.3
		c0.8,0,1.6-0.1,2.2-0.3c0.7-0.2,1.3-0.4,1.9-0.8c0.5-0.3,1-0.7,1.4-1.1c0.4-0.4,0.7-0.9,0.9-1.4c0.1-0.4,0.2-0.9,0.3-1.4
		c0.1-0.5,0.1-1.1,0.1-1.8V89.7H28.8z M23.9,94.4c0.1-0.3,0.3-0.6,0.6-0.8c0.2-0.2,0.5-0.4,0.8-0.6c0.3-0.1,0.7-0.2,1-0.2
		c0.3,0,0.7,0.1,1,0.2c0.3,0.1,0.6,0.3,0.9,0.6c0.2,0.2,0.4,0.5,0.6,0.8c0.1,0.3,0.2,0.7,0.2,1c0,0.4-0.1,0.7-0.2,1
		c-0.1,0.3-0.3,0.6-0.6,0.9c-0.2,0.2-0.5,0.4-0.8,0.6c-0.3,0.1-0.7,0.2-1,0.2c-0.4,0-0.7-0.1-1.1-0.2c-0.3-0.1-0.6-0.3-0.8-0.6
		c-0.2-0.2-0.4-0.5-0.6-0.9c-0.1-0.3-0.2-0.7-0.2-1.1C23.6,95.1,23.7,94.8,23.9,94.4"/>
	<path class="st2" d="M59.6,56.2h-4.1h-6.3c-0.4,0-0.9,0-1.3,0c-0.1,0-0.2-0.1,0.1,0c0,0-0.1,0-0.1,0c-0.1,0-0.2,0-0.3-0.1
		c-0.1,0-0.1-0.1,0.1,0c0,0-0.1,0-0.1-0.1c-0.1,0-0.2-0.1-0.3-0.2c-0.2-0.1,0.1,0.1,0.1,0.1c0,0-0.1-0.1-0.1-0.1
		c-0.1-0.1-0.1-0.1-0.2-0.2c-0.1-0.1-0.1-0.2,0,0.1c0,0-0.1-0.1-0.1-0.1c-0.1-0.1-0.1-0.2-0.2-0.3c-0.1-0.2,0,0.1,0,0.1
		c0,0,0-0.1,0-0.1c0-0.1-0.1-0.2-0.1-0.3c0-0.1,0-0.2,0,0.1c0,0,0-0.1,0-0.1c0,0,0-0.1,0-0.1v-0.1v-5.6v-2.6v-0.4c0-0.1,0-0.1,0-0.2
		c0-0.1,0.1-0.1,0,0.1c0-0.1,0-0.2,0.1-0.3c0-0.1,0.1-0.4,0-0.2c-0.1,0.2,0,0,0,0c0-0.1,0.1-0.1,0.1-0.2c0,0,0.1-0.1,0.1-0.1
		c0.1-0.1,0.1-0.1-0.1,0.1c0.1-0.1,0.1-0.1,0.2-0.2c0,0,0.3-0.3,0.1-0.1c-0.2,0.1,0.1-0.1,0.2-0.1c0,0,0.1,0,0.1-0.1
		c0.1-0.1,0.1,0-0.1,0c0.1,0,0.2-0.1,0.2-0.1c0,0,0.4-0.1,0.2,0c-0.2,0,0.1,0,0.2,0h0.1h0.6h2.6h6.5h1.6c0.1,0,0.2,0,0.3,0
		c0.2,0-0.2,0-0.1,0c0,0,0.1,0,0.1,0c0.1,0,0.2,0.1,0.3,0.1c0.1,0,0.1,0.1-0.1,0c0,0,0.1,0,0.1,0.1c0.1,0,0.2,0.1,0.3,0.2
		c0.2,0.1-0.2-0.2-0.1-0.1c0,0,0.1,0.1,0.1,0.1c0.1,0.1,0.1,0.1,0.2,0.2c0.1,0.1-0.1-0.1-0.1-0.1c0,0,0.1,0.1,0.1,0.1
		c0.1,0.1,0.1,0.2,0.2,0.3c0.1,0.2-0.1-0.2,0-0.1c0,0.1,0,0.1,0.1,0.2c0,0.1,0,0.2,0.1,0.3c0,0.2,0-0.1,0-0.1c0,0,0,0.1,0,0.1
		c0,0,0,0.1,0,0.1c0,1.6,0,3.3,0,4.9v3v0.8V55c0,0,0,0.1,0,0.1c0,0.2,0-0.1,0-0.1c0,0.1,0,0.2-0.1,0.3c0,0.1,0,0.1,0,0.2
		c0,0.1-0.1,0.1,0-0.1c-0.1,0.1-0.1,0.2-0.1,0.3c0,0,0,0.1-0.1,0.1c-0.1,0.2,0.1-0.1,0.1-0.1c-0.1,0.1-0.1,0.1-0.2,0.2
		c0,0-0.1,0.1-0.1,0.1c-0.1,0.1-0.1,0,0.1-0.1c-0.1,0-0.1,0.1-0.2,0.1c-0.1,0-0.3,0.2-0.1,0.1c0.2-0.1-0.1,0-0.2,0
		C59.8,56.1,59.7,56.1,59.6,56.2c0.3-0.1,0.3,0,0.2,0C59.7,56.2,59.6,56.2,59.6,56.2c-0.6,0-1.2,0.5-1.2,1.2c0,0.6,0.5,1.2,1.2,1.2
		c2,0,3.6-1.7,3.7-3.7c0-0.6,0-1.3,0-1.9v-6.3v-0.5c0-1-0.4-1.9-1.1-2.6c-0.7-0.7-1.6-1-2.6-1.1h-0.4h-5.9c-1.7,0-3.4,0-5.1,0
		c-1.7,0-3.3,1.1-3.6,2.8c-0.2,0.7-0.1,1.4-0.1,2.1v6.5c0,0.8-0.1,1.6,0.2,2.3c0.4,1.1,1.2,1.9,2.3,2.2c0.4,0.1,0.8,0.2,1.3,0.2h5.3
		h5.7h0.3c0.6,0,1.2-0.6,1.2-1.2C60.7,56.7,60.2,56.2,59.6,56.2"/>
	<path class="st3" d="M59.6,56.2h-4.1h-6.3c-0.4,0-0.9,0-1.3,0c-0.1,0-0.2-0.1,0.1,0c0,0-0.1,0-0.1,0c-0.1,0-0.2,0-0.3-0.1
		c-0.1,0-0.1-0.1,0.1,0c0,0-0.1,0-0.1-0.1c-0.1,0-0.2-0.1-0.3-0.2c-0.2-0.1,0.1,0.1,0.1,0.1c0,0-0.1-0.1-0.1-0.1
		c-0.1-0.1-0.1-0.1-0.2-0.2c-0.1-0.1-0.1-0.2,0,0.1c0,0-0.1-0.1-0.1-0.1c-0.1-0.1-0.1-0.2-0.2-0.3c-0.1-0.2,0,0.1,0,0.1
		c0,0,0-0.1,0-0.1c0-0.1-0.1-0.2-0.1-0.3c0-0.1,0-0.2,0,0.1c0,0,0-0.1,0-0.1c0,0,0-0.1,0-0.1v-0.1v-5.6v-2.6v-0.4c0-0.1,0-0.1,0-0.2
		c0-0.1,0.1-0.1,0,0.1c0-0.1,0-0.2,0.1-0.3c0-0.1,0.1-0.4,0-0.2c-0.1,0.2,0,0,0,0c0-0.1,0.1-0.1,0.1-0.2c0,0,0.1-0.1,0.1-0.1
		c0.1-0.1,0.1-0.1-0.1,0.1c0.1-0.1,0.1-0.1,0.2-0.2c0,0,0.3-0.3,0.1-0.1c-0.2,0.1,0.1-0.1,0.2-0.1c0,0,0.1,0,0.1-0.1
		c0.1-0.1,0.1,0-0.1,0c0.1,0,0.2-0.1,0.2-0.1c0,0,0.4-0.1,0.2,0c-0.2,0,0.1,0,0.2,0h0.1h0.6h2.6h6.5h1.6c0.1,0,0.2,0,0.3,0
		c0.2,0-0.2,0-0.1,0c0,0,0.1,0,0.1,0c0.1,0,0.2,0.1,0.3,0.1c0.1,0,0.1,0.1-0.1,0c0,0,0.1,0,0.1,0.1c0.1,0,0.2,0.1,0.3,0.2
		c0.2,0.1-0.2-0.2-0.1-0.1c0,0,0.1,0.1,0.1,0.1c0.1,0.1,0.1,0.1,0.2,0.2c0.1,0.1-0.1-0.1-0.1-0.1c0,0,0.1,0.1,0.1,0.1
		c0.1,0.1,0.1,0.2,0.2,0.3c0.1,0.2-0.1-0.2,0-0.1c0,0.1,0,0.1,0.1,0.2c0,0.1,0,0.2,0.1,0.3c0,0.2,0-0.1,0-0.1c0,0,0,0.1,0,0.1
		c0,0,0,0.1,0,0.1c0,1.6,0,3.3,0,4.9v3v0.8V55c0,0,0,0.1,0,0.1c0,0.2,0-0.1,0-0.1c0,0.1,0,0.2-0.1,0.3c0,0.1,0,0.1,0,0.2
		c0,0.1-0.1,0.1,0-0.1c-0.1,0.1-0.1,0.2-0.1,0.3c0,0,0,0.1-0.1,0.1c-0.1,0.2,0.1-0.1,0.1-0.1c-0.1,0.1-0.1,0.1-0.2,0.2
		c0,0-0.1,0.1-0.1,0.1c-0.1,0.1-0.1,0,0.1-0.1c-0.1,0-0.1,0.1-0.2,0.1c-0.1,0-0.3,0.2-0.1,0.1c0.2-0.1-0.1,0-0.2,0
		C59.8,56.1,59.7,56.1,59.6,56.2c0.3-0.1,0.3,0,0.2,0C59.7,56.2,59.6,56.2,59.6,56.2c-0.6,0-1.2,0.5-1.2,1.2c0,0.6,0.5,1.2,1.2,1.2
		c2,0,3.6-1.7,3.7-3.7c0-0.6,0-1.3,0-1.9v-6.3v-0.5c0-1-0.4-1.9-1.1-2.6c-0.7-0.7-1.6-1-2.6-1.1h-0.4h-5.9c-1.7,0-3.4,0-5.1,0
		c-1.7,0-3.3,1.1-3.6,2.8c-0.2,0.7-0.1,1.4-0.1,2.1v6.5c0,0.8-0.1,1.6,0.2,2.3c0.4,1.1,1.2,1.9,2.3,2.2c0.4,0.1,0.8,0.2,1.3,0.2h5.3
		h5.7h0.3c0.6,0,1.2-0.6,1.2-1.2C60.7,56.7,60.2,56.2,59.6,56.2z"/>
	<path class="st2" d="M53.8,34.4c-2.2,0-4.3,1.2-5.4,3.2c-0.5,0.9-0.8,2-0.8,3.1c0,0.5,0,1,0,1.4v1.6c0,0.7,0.6,1.2,1.2,1.2h3.4h5.4
		h1.2c0.7,0,1.2-0.6,1.2-1.2v-3c0-2.1-1-4-2.7-5.2C56.3,34.7,55,34.4,53.8,34.4c-0.6,0-1.2,0.6-1.2,1.2c0,0.7,0.5,1.2,1.2,1.2
		c0.1,0,0.2,0,0.3,0c0.1,0,0.1,0,0.2,0c0.2,0-0.1,0-0.1,0c0.2,0.1,0.5,0.1,0.7,0.2c0.1,0,0.2,0.1,0.3,0.1c0,0,0.1,0,0.1,0.1
		c0.1,0.1-0.3-0.1-0.1,0c0.2,0.1,0.4,0.2,0.6,0.3c0.1,0.1,0.2,0.1,0.3,0.2c0.1,0,0.1,0.1-0.1-0.1c0,0,0.1,0.1,0.1,0.1
		c0.2,0.1,0.3,0.3,0.5,0.5c0.1,0.1,0.1,0.2,0.2,0.2c0.1,0.1-0.2-0.3-0.1-0.1c0,0,0.1,0.1,0.1,0.1c0.1,0.2,0.2,0.4,0.3,0.6
		c0,0.1,0.2,0.4,0,0.1c0,0.1,0.1,0.2,0.1,0.3c0.1,0.2,0.1,0.5,0.2,0.7c0,0.1,0,0.1,0,0.2c0,0.2,0-0.3,0-0.1c0,0.1,0,0.2,0,0.3
		c0,0.1,0,0.2,0,0.3v1.5v1.5c0.4-0.4,0.8-0.8,1.2-1.2h-3.4H50h-1.2c0.4,0.4,0.8,0.8,1.2,1.2v-2.9c0-0.2,0-0.5,0-0.7
		c0-0.2-0.1,0.3,0,0.1c0,0,0-0.1,0-0.1c0-0.1,0-0.2,0.1-0.3c0.1-0.2,0.1-0.4,0.2-0.7c-0.1,0.4,0,0,0-0.1c0-0.1,0.1-0.2,0.1-0.3
		c0.1-0.1,0.1-0.2,0.2-0.3c0-0.1,0.1-0.1,0.1-0.2c0.1-0.2-0.2,0.2,0,0c0.1-0.2,0.3-0.3,0.4-0.5c0.1-0.1,0.2-0.1,0.2-0.2
		c0,0,0.1-0.1,0.1-0.1c0.1-0.1,0,0-0.1,0.1c0,0,0.1,0,0.1-0.1c0.2-0.1,0.4-0.3,0.6-0.4c0,0,0.1,0,0.1-0.1c0,0,0.1,0,0.1-0.1
		c-0.1,0-0.1,0-0.2,0.1c0.1,0,0.2-0.1,0.4-0.1c0.3-0.1,0.5-0.1,0.8-0.2c0.2,0-0.1,0-0.1,0c0.1,0,0.2,0,0.3,0c0.1,0,0.2,0,0.3,0
		c0.6,0,1.2-0.6,1.2-1.2C55,34.9,54.5,34.4,53.8,34.4"/>
	<path class="st3" d="M53.8,34.4c-2.2,0-4.3,1.2-5.4,3.2c-0.5,0.9-0.8,2-0.8,3.1c0,0.5,0,1,0,1.4v1.6c0,0.7,0.6,1.2,1.2,1.2h3.4h5.4
		h1.2c0.7,0,1.2-0.6,1.2-1.2v-3c0-2.1-1-4-2.7-5.2C56.3,34.7,55,34.4,53.8,34.4c-0.6,0-1.2,0.6-1.2,1.2c0,0.7,0.5,1.2,1.2,1.2
		c0.1,0,0.2,0,0.3,0c0.1,0,0.1,0,0.2,0c0.2,0-0.1,0-0.1,0c0.2,0.1,0.5,0.1,0.7,0.2c0.1,0,0.2,0.1,0.3,0.1c0,0,0.1,0,0.1,0.1
		c0.1,0.1-0.3-0.1-0.1,0c0.2,0.1,0.4,0.2,0.6,0.3c0.1,0.1,0.2,0.1,0.3,0.2c0.1,0,0.1,0.1-0.1-0.1c0,0,0.1,0.1,0.1,0.1
		c0.2,0.1,0.3,0.3,0.5,0.5c0.1,0.1,0.1,0.2,0.2,0.2c0.1,0.1-0.2-0.3-0.1-0.1c0,0,0.1,0.1,0.1,0.1c0.1,0.2,0.2,0.4,0.3,0.6
		c0,0.1,0.2,0.4,0,0.1c0,0.1,0.1,0.2,0.1,0.3c0.1,0.2,0.1,0.5,0.2,0.7c0,0.1,0,0.1,0,0.2c0,0.2,0-0.3,0-0.1c0,0.1,0,0.2,0,0.3
		c0,0.1,0,0.2,0,0.3v1.5v1.5c0.4-0.4,0.8-0.8,1.2-1.2h-3.4H50h-1.2c0.4,0.4,0.8,0.8,1.2,1.2v-2.9c0-0.2,0-0.5,0-0.7
		c0-0.2-0.1,0.3,0,0.1c0,0,0-0.1,0-0.1c0-0.1,0-0.2,0.1-0.3c0.1-0.2,0.1-0.4,0.2-0.7c-0.1,0.4,0,0,0-0.1c0-0.1,0.1-0.2,0.1-0.3
		c0.1-0.1,0.1-0.2,0.2-0.3c0-0.1,0.1-0.1,0.1-0.2c0.1-0.2-0.2,0.2,0,0c0.1-0.2,0.3-0.3,0.4-0.5c0.1-0.1,0.2-0.1,0.2-0.2
		c0,0,0.1-0.1,0.1-0.1c0.1-0.1,0,0-0.1,0.1c0,0,0.1,0,0.1-0.1c0.2-0.1,0.4-0.3,0.6-0.4c0,0,0.1,0,0.1-0.1c0,0,0.1,0,0.1-0.1
		c-0.1,0-0.1,0-0.2,0.1c0.1,0,0.2-0.1,0.4-0.1c0.3-0.1,0.5-0.1,0.8-0.2c0.2,0-0.1,0-0.1,0c0.1,0,0.2,0,0.3,0c0.1,0,0.2,0,0.3,0
		c0.6,0,1.2-0.6,1.2-1.2C55,34.9,54.5,34.4,53.8,34.4z"/>
	<path class="st2" d="M52.6,51.6V53c0,0.6,0.6,1.2,1.2,1.2c0.7,0,1.2-0.5,1.2-1.2v-1.4c0-0.6-0.6-1.2-1.2-1.2
		C53.2,50.4,52.6,50.9,52.6,51.6"/>
	<path class="st3" d="M52.6,51.6V53c0,0.6,0.6,1.2,1.2,1.2c0.7,0,1.2-0.5,1.2-1.2v-1.4c0-0.6-0.6-1.2-1.2-1.2
		C53.2,50.4,52.6,50.9,52.6,51.6z"/>
	<path class="st2" d="M76.8,48.2c-0.7-0.1-1.4,0.4-1.4,1.2c-0.9,10.3-8.7,18.5-19,20.1c-0.6,0.1-1.1,0.6-1.1,1.3v10.7h-4.4V70.7
		c0-0.6-0.4-1.2-1.1-1.3c-10.9-1.6-19-11.1-19-22.1c0-12.3,10-22.4,22.4-22.4c6.2,0,12,2.5,16.3,7.1c0.5,0.5,1.3,0.5,1.8,0.1
		c0.5-0.5,0.5-1.3,0.1-1.8c-4.7-5-11.4-7.9-18.2-7.9c-13.8-0.1-24.9,11.1-24.9,24.9c0,11.9,8.5,22.2,20.2,24.4v10.9
		c0,0.7,0.6,1.3,1.3,1.3h7c0.7,0,1.3-0.6,1.3-1.3V71.8c10.9-2.1,19.1-11.1,20.1-22.1C78.1,48.9,77.6,48.3,76.8,48.2"/>
	<path class="st4" d="M76.8,48.2c-0.7-0.1-1.4,0.4-1.4,1.2c-0.9,10.3-8.7,18.5-19,20.1c-0.6,0.1-1.1,0.6-1.1,1.3v10.7h-4.4V70.7
		c0-0.6-0.4-1.2-1.1-1.3c-10.9-1.6-19-11.1-19-22.1c0-12.3,10-22.4,22.4-22.4c6.2,0,12,2.5,16.3,7.1c0.5,0.5,1.3,0.5,1.8,0.1
		c0.5-0.5,0.5-1.3,0.1-1.8c-4.7-5-11.4-7.9-18.2-7.9c-13.8-0.1-24.9,11.1-24.9,24.9c0,11.9,8.5,22.2,20.2,24.4v10.9
		c0,0.7,0.6,1.3,1.3,1.3h7c0.7,0,1.3-0.6,1.3-1.3V71.8c10.9-2.1,19.1-11.1,20.1-22.1C78.1,48.9,77.6,48.3,76.8,48.2z"/>
	<path class="st2" d="M80.2,34.3c-10.4,0-19,8.5-19,19c0,0.7,0.6,1.3,1.3,1.3c0.7,0,1.3-0.6,1.3-1.3c0-9.1,7.3-16.4,16.4-16.4
		s16.4,7.3,16.4,16.4c0,7.8-5.6,14.5-13.1,16.1c-0.6,0.1-1,0.7-1,1.3l-0.1,10.8h-4.4V70.6c0-0.6-0.4-1.1-1-1.3
		c-1.5-0.3-3.1-0.9-4.5-1.6c-0.6-0.3-1.4-0.1-1.7,0.5c-0.3,0.6-0.1,1.4,0.5,1.7c1.4,0.7,2.7,1.3,4.2,1.6v11c0,0.7,0.6,1.3,1.3,1.3h7
		c0.7,0,1.3-0.6,1.3-1.3L85,71.5c8.3-2.1,14.1-9.7,14.1-18.4C99.2,42.8,90.7,34.3,80.2,34.3"/>
	<path class="st4" d="M80.2,34.3c-10.4,0-19,8.5-19,19c0,0.7,0.6,1.3,1.3,1.3c0.7,0,1.3-0.6,1.3-1.3c0-9.1,7.3-16.4,16.4-16.4
		s16.4,7.3,16.4,16.4c0,7.8-5.6,14.5-13.1,16.1c-0.6,0.1-1,0.7-1,1.3l-0.1,10.8h-4.4V70.6c0-0.6-0.4-1.1-1-1.3
		c-1.5-0.3-3.1-0.9-4.5-1.6c-0.6-0.3-1.4-0.1-1.7,0.5c-0.3,0.6-0.1,1.4,0.5,1.7c1.4,0.7,2.7,1.3,4.2,1.6v11c0,0.7,0.6,1.3,1.3,1.3h7
		c0.7,0,1.3-0.6,1.3-1.3L85,71.5c8.3-2.1,14.1-9.7,14.1-18.4C99.2,42.8,90.7,34.3,80.2,34.3z"/>
</g>
<g>
	<path class="st5" d="M62.6,5.4L120,38.5v66.1l-57.4,33.1L5.2,104.6V38.5L62.6,5.4 M62.6-0.3L0.2,35.6v71.9l62.4,35.9l62.4-35.9
		V35.6L62.6-0.3L62.6-0.3z"/>
</g>
</svg>
